<svg id="Filled" height="512" viewBox="0 0 512 512" width="512" xmlns="http://www.w3.org/2000/svg"><path d="m56 120h400v64h-400z" fill="#4f5659"/><path d="m32 120h32v336h-32z" fill="#596063"/><path d="m448 120h32v336h-32z" fill="#596063"/><path d="m64 184h384v32h-384z" fill="#e9eef2"/><g fill="#dadcde"><path d="m96 184h32v32h-32z"/><path d="m160 184h32v32h-32z"/><path d="m224 184h32v32h-32z"/><path d="m288 184h32v32h-32z"/><path d="m352 184h32v32h-32z"/><path d="m416 184h32v32h-32z"/></g><path d="m448 168v48h-384v-48h-32v48 32h448v-32-48z" fill="#6a7073"/><path d="m24 88h464v32h-464z" fill="#6a7073"/><path d="m176 152h160v32h-160z" fill="#596063"/><path d="m192 56h128v96h-128z" fill="#e9eef2"/><path d="m256 56h64v96h-64z" fill="#dadcde"/><path d="m176 424h160v32h-160z" fill="#596063"/><path d="m208 424h32v32h-32z" fill="#4f5659"/><path d="m272 424h32v32h-32z" fill="#4f5659"/><path d="m488 80h-160v-24a8 8 0 0 0 -8-8h-128a8 8 0 0 0 -8 8v24h-160a8 8 0 0 0 -8 8v32a8 8 0 0 0 8 8v328a8 8 0 0 0 8 8h32a8 8 0 0 0 8-8v-200h128v160h-24a8 8 0 0 0 -8 8v32a8 8 0 0 0 8 8h160a8 8 0 0 0 8-8v-32a8 8 0 0 0 -8-8h-24v-160h128v200a8 8 0 0 0 8 8h32a8 8 0 0 0 8-8v-328a8 8 0 0 0 8-8v-32a8 8 0 0 0 -8-8zm-8 16v16h-152v-16zm-416 128h384a8 8 0 0 0 8-8v-40h16v64h-432v-64h16v40a8 8 0 0 0 8 8zm8-96h112v16h-8a8 8 0 0 0 -8 8v24h-96zm256 32v16h-144v-16zm112 32v16h-16v-16zm-32 16h-16v-16h16zm-32 0h-16v-16h16zm-304-16h16v16h-16zm32 0h16v16h-16zm32 0h16v16h-16zm32 0h16v16h-16zm32 0h16v16h-16zm32 0h16v16h-16zm32 0h16v16h-16zm32 0h16v16h-16zm32 0h16v16h-16zm112-16h-96v-24a8 8 0 0 0 -8-8h-8v-16h112zm-128-32h-48v-80h48zm-64-80v80h-48v-80zm-216 32h152v16h-152zm24 32v32h-16v-32zm0 320h-16v-192h16zm128-16h16v16h-16zm112 0v16h-16v-16zm-32 16h-16v-16h16zm-32 0h-16v-16h16zm96-16v16h-16v-16zm-32-16h-80v-160h80zm160 32v-192h16v192zm16-288h-16v-32h16z"/></svg>