<svg id="Layer_2" enable-background="new 0 0 512 512" height="512" viewBox="0 0 512 512" width="512" xmlns="http://www.w3.org/2000/svg"><g><g><path d="m366 502h-220c-11.046 0-20-8.954-20-20v-452c0-11.046 8.954-20 20-20h220c11.046 0 20 8.954 20 20v452c0 11.046-8.954 20-20 20z" fill="#6e83b7"/></g><g><path d="m40 136h432v240h-432z" fill="#80d6fb" transform="matrix(0 1 -1 0 512 0)"/></g><g><path d="m196 40 6.27 13.793c2.272 4.998 7.255 8.207 12.745 8.207h81.97c5.49 0 10.473-3.209 12.745-8.207l6.27-13.793z" fill="#6e83b7"/></g><g><circle cx="226" cy="34" fill="#466089" r="8"/></g><g><circle cx="286" cy="34" fill="#466089" r="13"/></g><g><circle cx="286" cy="34" fill="#80d6fb" r="8"/></g></g></svg>