<svg id="Layer_1" enable-background="new 0 0 512 512" height="512" viewBox="0 0 512 512" width="512" xmlns="http://www.w3.org/2000/svg"><g><path d="m271.002 511.568c48.03-2.775 92.509-18.792 129.842-44.455 4.288-2.947 2.063-13.917 6.157-17.113 3.458-2.7 13.263 2.408 16.575-.463 50.636-43.882 83.877-107.304 87.993-178.536.286-4.964-9.569-9.965-9.569-15.001 0-4.792 9.868-9.553 9.608-14.28-3.898-70.905-36.651-134.121-86.714-178.106-3.652-3.209-12.062-.114-15.894-3.114-4.172-3.266-3.783-12.606-8.157-15.613-37.332-25.663-81.811-41.679-129.841-44.455-2.482-.143-23.723 127.712-23.723 255.568s21.241 255.711 23.723 255.568z" fill="#f66"/><path d="m10 256c0 5.036-9.855 10.037-9.568 15.001 4.081 70.631 36.797 133.582 86.713 177.42 3.796 3.334 12.865-1.528 16.855 1.579 4.017 3.129 2.956 14.225 7.159 17.115 37.332 25.661 81.81 41.678 129.839 44.453 4.964.287 9.966-9.568 15.002-9.568v-492c-5.036 0-10.037-9.855-15.001-9.568-48.031 2.775-92.51 18.792-129.843 44.455-4.189 2.879-1.653 11.496-5.657 14.613s-14.547.735-18.356 4.08c-49.914 43.837-82.629 106.788-86.711 177.418-.287 4.964 9.568 9.966 9.568 15.002z" fill="#f96"/><path d="m51.353 172.784h68.216v30h-68.216z" fill="#fff5f5"/><path d="m512 256c0-5.037-.162-10.035-.449-15h-171.905c3.895-68.293 34.309-131.601 85.2-177.409-7.617-6.69-15.635-12.932-24.012-18.691-54.845 51.196-87.394 121.004-91.229 196.1h-38.605v-240.551c-4.965-.287-9.963-.449-15-.449l-10 257 10 255c5.037 0 10.035-.162 15-.449v-240.551h38.605c3.835 75.096 36.385 144.904 91.229 196.1 8.377-5.759 16.395-12.001 24.012-18.691-50.891-45.808-81.305-109.116-85.2-177.409h171.905c.287-4.965.449-9.963.449-15z" fill="#03232e"/><path d="m256 0c-5.037 0-10.035.162-15 .449v240.551h-38.605c-3.835-75.096-36.384-144.904-91.229-196.1-8.378 5.759-16.395 12.001-24.012 18.691 50.891 45.808 81.305 109.115 85.2 177.409h-171.905c-.287 4.965-.449 9.963-.449 15s.162 10.035.449 15h171.905c-3.895 68.293-34.309 131.6-85.2 177.409 7.617 6.69 15.635 12.932 24.013 18.691 54.844-51.196 87.394-121.004 91.229-196.1h38.604v240.551c4.965.287 9.963.449 15 .449z" fill="#334973"/></g></svg>