<?xml version="1.0"?>
<svg xmlns="http://www.w3.org/2000/svg" viewBox="0 0 128 128" width="512" height="512"><path d="M127,89.557H1L.991,3.953A2.953,2.953,0,0,1,3.944,1h120.1A2.953,2.953,0,0,1,127,3.953Z" fill="#ffe885"/><path d="M123.315,89.557V32.03a2.953,2.953,0,0,0-2.953-2.953H19.638a2.953,2.953,0,0,0-2.953,2.953V89.557Z" fill="#dcc864"/><path d="M127,17.33H1V3.953A2.945,2.945,0,0,1,3.944,1h120.1A2.953,2.953,0,0,1,127,3.953Z" fill="#aad2ff"/><path d="M3.738,6.7A2.953,2.953,0,0,1,6.691,3.747H126.784c.064,0,.147.015.21.019A2.957,2.957,0,0,0,124.047,1H3.944A2.945,2.945,0,0,0,1,3.953V17.33H3.738Z" fill="#bee6ff"/><circle cx="8.648" cy="10.843" r="2" fill="#96bef0"/><circle cx="16.648" cy="10.843" r="2" fill="#96bef0"/><circle cx="24.648" cy="10.843" r="2" fill="#96bef0"/><circle cx="8.648" cy="10.052" r="2" fill="#e678a0"/><circle cx="16.648" cy="10.052" r="2" fill="#f0dc78"/><circle cx="24.648" cy="10.052" r="2" fill="#8d7bd4"/><path d="M13.638,25.077H114.362a2.953,2.953,0,0,1,2.953,2.953v96.016A2.953,2.953,0,0,1,114.362,127H28.851L10.685,108.834V28.03A2.953,2.953,0,0,1,13.638,25.077Z" fill="#fffffa"/><path d="M10.685,108.834H27.164a1.687,1.687,0,0,1,1.687,1.687V127Z" fill="#f0f0e6"/><path d="M46.33,99.832a1.314,1.314,0,0,1-1.106.553,2.022,2.022,0,0,1-1.244-.415l-19.9-18.66a1.676,1.676,0,0,1,0-2.488l19.9-18.66a2.022,2.022,0,0,1,1.244-.415,1.314,1.314,0,0,1,1.106.553l5.944,6.358a1.491,1.491,0,0,1,.484,1.244,1.754,1.754,0,0,1-.484,1.106L39.7,80.066,52.274,91.124a1.754,1.754,0,0,1,.484,1.106,1.491,1.491,0,0,1-.484,1.244Zm15.758,15.481a1.311,1.311,0,0,0,1.244-.069,2.093,2.093,0,0,0,.829-1.037l18.8-64.966A1.311,1.311,0,0,0,82.891,48a2.093,2.093,0,0,0-1.037-.829L73.422,44.68a1.653,1.653,0,0,0-1.244.207,2.093,2.093,0,0,0-.829,1.037L52.55,110.89a1.311,1.311,0,0,0,.069,1.244,2.093,2.093,0,0,0,1.037.829ZM91.53,99.97a2.022,2.022,0,0,1-1.244.415,1.314,1.314,0,0,1-1.106-.553l-5.944-6.358a1.491,1.491,0,0,1-.484-1.244,1.754,1.754,0,0,1,.484-1.106L95.815,80.066,83.236,69.008a1.754,1.754,0,0,1-.484-1.106,1.491,1.491,0,0,1,.484-1.244L89.18,60.3a1.651,1.651,0,0,1,1.175-.553,1.925,1.925,0,0,1,1.175.415l19.9,18.66a1.676,1.676,0,0,1,0,2.488Z" fill="#f0f0e6"/><path d="M42.575,95.832a1.314,1.314,0,0,1-1.106.553,2.022,2.022,0,0,1-1.244-.415l-19.9-18.66a1.676,1.676,0,0,1,0-2.488l19.9-18.66a2.022,2.022,0,0,1,1.244-.415,1.314,1.314,0,0,1,1.106.553l5.944,6.358A1.491,1.491,0,0,1,49,63.9a1.754,1.754,0,0,1-.484,1.106L35.94,76.066,48.519,87.124A1.754,1.754,0,0,1,49,88.23a1.491,1.491,0,0,1-.484,1.244Zm15.758,15.481a1.311,1.311,0,0,0,1.244-.069,2.093,2.093,0,0,0,.829-1.037L79.2,45.242A1.311,1.311,0,0,0,79.136,44a2.093,2.093,0,0,0-1.037-.829L69.667,40.68a1.653,1.653,0,0,0-1.244.207,2.093,2.093,0,0,0-.829,1.037L48.8,106.89a1.311,1.311,0,0,0,.069,1.244,2.093,2.093,0,0,0,1.037.829ZM87.775,95.97a2.022,2.022,0,0,1-1.244.415,1.314,1.314,0,0,1-1.106-.553l-5.944-6.358A1.491,1.491,0,0,1,79,88.23a1.754,1.754,0,0,1,.484-1.106L92.06,76.066,79.481,65.008A1.754,1.754,0,0,1,79,63.9a1.491,1.491,0,0,1,.484-1.244L85.425,56.3a1.651,1.651,0,0,1,1.175-.553,1.925,1.925,0,0,1,1.175.415l19.9,18.66a1.676,1.676,0,0,1,0,2.488Z" fill="#e678a0"/><path d="M127,90.557h-4.686a1,1,0,0,1,0-2H126V3.953A1.955,1.955,0,0,0,124.047,2H3.953A1.955,1.955,0,0,0,2,3.953v84.6H5.686a1,1,0,0,1,0,2H1a1,1,0,0,1-1-1V3.953A3.958,3.958,0,0,1,3.953,0H124.047A3.958,3.958,0,0,1,128,3.953v85.6A1,1,0,0,1,127,90.557Z" fill="#785ae6"/><path d="M127,18.33H21.378a1,1,0,0,1,0-2H126V3.953A1.955,1.955,0,0,0,124.047,2H3.953A1.955,1.955,0,0,0,2,3.953V16.33H8.954a1,1,0,1,1,0,2H1a1,1,0,0,1-1-1V3.953A3.958,3.958,0,0,1,3.953,0H124.047A3.958,3.958,0,0,1,128,3.953V17.33A1,1,0,0,1,127,18.33Z" fill="#785ae6"/><path d="M114.361,128h-6.13a1,1,0,0,1,0-2h6.13a1.955,1.955,0,0,0,1.953-1.953V28.03a1.955,1.955,0,0,0-1.953-1.953H13.639a1.955,1.955,0,0,0-1.953,1.953v80.39L29.266,126H93.61a1,1,0,0,1,0,2H28.852a1,1,0,0,1-.707-.293L9.979,109.541a1,1,0,0,1-.293-.707V28.03a3.958,3.958,0,0,1,3.953-3.953H114.361a3.958,3.958,0,0,1,3.953,3.953v96.017A3.958,3.958,0,0,1,114.361,128Z" fill="#785ae6"/><path d="M28.852,128a1,1,0,0,1-.707-.293L9.979,109.541a1,1,0,0,1,.707-1.707H27.164a2.69,2.69,0,0,1,2.688,2.687V127a1,1,0,0,1-1,1ZM13.1,109.834l14.752,14.752V110.521a.688.688,0,0,0-.687-.687Z" fill="#785ae6"/><path d="M58.921,112.437a2.544,2.544,0,0,1-.9-.174l-8.384-2.336c-.034-.01-.068-.021-.1-.035a3.083,3.083,0,0,1-1.514-1.227,2.288,2.288,0,0,1-.15-2.146l14.1-48.744a1,1,0,0,1,1.922.556L49.756,107.168c-.12.313-.074.387-.044.436a1.084,1.084,0,0,0,.516.412L58.6,110.35a.994.994,0,0,1,.1.035c.222.089.292.043.343.011a1.123,1.123,0,0,0,.431-.561L78.244,44.964c.12-.313.074-.387.044-.436a1.114,1.114,0,0,0-.561-.431l-8.344-2.458a.6.6,0,0,0-.432.1,1.123,1.123,0,0,0-.431.561l-1.5,5.2a1,1,0,0,1-1.922-.556l1.532-5.3a3.151,3.151,0,0,1,1.26-1.606,2.661,2.661,0,0,1,1.97-.341l8.52,2.51a3.142,3.142,0,0,1,1.6,1.257,2.288,2.288,0,0,1,.15,2.146L61.367,110.485a3.151,3.151,0,0,1-1.26,1.606A2.226,2.226,0,0,1,58.921,112.437ZM86.53,97.385a2.3,2.3,0,0,1-1.869-.9l-5.91-6.324A2.46,2.46,0,0,1,78,88.13a2.733,2.733,0,0,1,.772-1.713L90.545,76.066,78.821,65.759A2.761,2.761,0,0,1,78,64a2.485,2.485,0,0,1,.772-2.051l5.92-6.334a2.655,2.655,0,0,1,1.905-.87,2.912,2.912,0,0,1,1.775.615.956.956,0,0,1,.083.07l19.9,18.66a2.675,2.675,0,0,1,.023,3.925l-6,5.628a1,1,0,1,1-1.367-1.459L107,76.581a.689.689,0,0,0,.236-.515.716.716,0,0,0-.26-.537l-19.836-18.6a.912.912,0,0,0-.536-.186c-.052,0-.208,0-.467.259l-5.921,6.334c-.241.243-.228.386-.22.462a.743.743,0,0,0,.2.5L92.72,75.315a1,1,0,0,1,0,1.5L80.142,87.875h0a.84.84,0,0,0-.149.454c-.008.077-.021.22.2.438l5.967,6.383a1.03,1.03,0,0,1,.069.083c.226.3.61.175.911-.035l6.8-6.37A1,1,0,1,1,95.3,90.287L88.458,96.7a.956.956,0,0,1-.083.07A3.011,3.011,0,0,1,86.53,97.385Zm-45.13,0a2.912,2.912,0,0,1-1.775-.615.956.956,0,0,1-.083-.07l-19.9-18.66a2.675,2.675,0,0,1-.023-3.925l6-5.628a1,1,0,1,1,1.367,1.459L21,75.551a.689.689,0,0,0-.236.515.716.716,0,0,0,.26.537L40.864,95.2a.908.908,0,0,0,.536.186c.052,0,.208,0,.467-.259l5.921-6.335c.241-.242.228-.385.22-.462a.743.743,0,0,0-.2-.5L35.28,76.817a1,1,0,0,1,0-1.5L47.858,64.257h0a.84.84,0,0,0,.149-.454c.008-.077.021-.22-.2-.437l-5.967-6.383a.946.946,0,0,1-.069-.083c-.226-.3-.612-.175-.911.035l-6.8,6.37A1,1,0,1,1,32.7,61.845l6.841-6.413a.956.956,0,0,1,.083-.07,2.686,2.686,0,0,1,3.714.29l5.91,6.324A2.46,2.46,0,0,1,50,64a2.733,2.733,0,0,1-.772,1.713L37.455,76.066,49.179,86.373A2.761,2.761,0,0,1,50,88.13a2.485,2.485,0,0,1-.772,2.051l-5.92,6.333A2.654,2.654,0,0,1,41.4,97.385Z" fill="#785ae6"/></svg>
