<svg id="Layer_1" enable-background="new 0 0 64 64" height="512" viewBox="0 0 64 64" width="512" xmlns="http://www.w3.org/2000/svg"><g><g><g><path d="m20 54-14-8v-40l14 8z" fill="#db9e68"/></g><g><path d="m20 54 14-8v-40l-14 8z" fill="#eec78e"/></g><g><path d="m48 54-14-8v-40l14 8z" fill="#db9e68"/></g><g><path d="m48 54 14-8v-40l-14 8z" fill="#eec78e"/></g><g><g><path d="m14 47h-2c-.552 0-1-.447-1-1s.448-1 1-1h2c.552 0 1 .447 1 1s-.448 1-1 1z" fill="#55525b"/></g><g><path d="m48 47c-.797 0-1.585-.117-2.341-.349-.528-.161-.826-.721-.664-1.248.161-.527.723-.829 1.248-.664 1.09.333 2.288.346 3.378.039.533-.147 1.084.161 1.233.692.149.532-.161 1.084-.692 1.233-.699.197-1.427.297-2.162.297zm-28 0h-2.004c-.552 0-1-.447-1-1s.448-1 1-1h2.004c.573 0 1.14-.08 1.686-.239.529-.154 1.085.15 1.239.681.155.53-.15 1.085-.681 1.239-.727.212-1.482.319-2.244.319zm33.232-2.35c-.236 0-.474-.083-.665-.253-.412-.367-.449-.999-.082-1.412.768-.862 1.266-1.918 1.441-3.052.084-.545.597-.918 1.142-.835.546.085.919.596.835 1.142-.234 1.515-.899 2.924-1.924 4.075-.197.222-.471.335-.747.335zm-27.95-.057c-.232 0-.466-.081-.656-.245-.417-.362-.461-.994-.098-1.411.757-.871 1.245-1.932 1.409-3.068.08-.547.592-.931 1.133-.846.547.079.926.586.847 1.133-.22 1.517-.87 2.933-1.88 4.094-.198.227-.475.343-.755.343zm17.379-.067c-.284 0-.565-.12-.764-.353-.996-1.174-1.628-2.598-1.828-4.118-.072-.548.313-1.05.86-1.122.559-.076 1.05.313 1.122.86.15 1.139.624 2.205 1.371 3.085.357.422.306 1.053-.115 1.41-.188.16-.417.238-.646.238zm12.339-7.43c-.553 0-1-.447-1-1v-3.997c0-.553.447-1 1-1s1 .447 1 1v3.997c0 .552-.447 1-1 1zm-28-.076c-.552 0-1-.447-1-1v-3.996c0-.553.448-1 1-1s1 .447 1 1v3.996c0 .552-.448 1-1 1zm14-.088c-.553 0-1-.447-1-1v-3.996c0-.553.447-1 1-1s1 .447 1 1v3.996c0 .552-.447 1-1 1zm-14-7.906c-.552 0-1-.447-1-1v-3.996c0-.553.448-1 1-1s1 .447 1 1v3.996c0 .553-.448 1-1 1zm14-.087c-.553 0-1-.447-1-1v-3.997c0-.553.447-1 1-1s1 .447 1 1v3.997c0 .553-.447 1-1 1zm-13.933-7.902c-.045 0-.091-.003-.138-.01-.547-.074-.93-.579-.854-1.126.208-1.52.849-2.939 1.851-4.108.361-.419.992-.467 1.41-.107.419.359.468.99.108 1.41-.751.876-1.231 1.94-1.388 3.077-.069.501-.497.864-.989.864zm13.855-.085c-.486 0-.913-.355-.988-.851-.171-1.138-.664-2.196-1.427-3.063-.364-.414-.324-1.046.091-1.411.413-.363 1.045-.324 1.411.091 1.016 1.154 1.674 2.566 1.903 4.084.082.546-.294 1.056-.84 1.139-.051.007-.1.011-.15.011zm-8.935-5.659c-.43 0-.827-.279-.957-.712-.159-.529.141-1.087.67-1.246.74-.223 1.511-.335 2.29-.335h.011c.747 0 1.488.104 2.202.307.531.152.839.705.688 1.236-.152.532-.71.832-1.236.688-.536-.154-1.093-.231-1.655-.231-.003 0-.006 0-.009 0-.585 0-1.162.084-1.716.251-.096.028-.193.042-.288.042z" fill="#55525b"/></g><g><path d="m55 29c-.553 0-1-.447-1-1v-2c0-.553.447-1 1-1s1 .447 1 1v2c0 .553-.447 1-1 1z" fill="#55525b"/></g></g></g><g><path d="m17 34h-3c-6.627 0-12 5.373-12 12s5.373 12 12 12h3c6.627 0 12-5.373 12-12s-5.373-12-12-12z" fill="#f68820"/></g><g><path d="m15.5 33.5c-2.619 0-4.75-2.131-4.75-4.75s2.131-4.75 4.75-4.75 4.75 2.131 4.75 4.75-2.131 4.75-4.75 4.75zm0-7.5c-1.517 0-2.75 1.233-2.75 2.75s1.233 2.75 2.75 2.75 2.75-1.233 2.75-2.75-1.233-2.75-2.75-2.75z" fill="#fbbe18"/></g><g><path d="m15.5 33.5c-2.619 0-4.75-2.131-4.75-4.75h2c0 1.517 1.233 2.75 2.75 2.75s2.75-1.233 2.75-2.75h2c0 2.619-2.131 4.75-4.75 4.75z" fill="#f68820"/></g><g><g><path d="m15 30h1c.552 0 1 .448 1 1v3h-3v-3c0-.552.448-1 1-1z" fill="#f68820"/></g><g><path d="m15 30h.5v4h-1.5v-3c0-.552.448-1 1-1z" fill="#fbbe18"/></g></g><g><circle cx="14" cy="46" fill="#fbbe18" r="12"/></g><g><circle cx="14" cy="46" fill="#55525b" r="10"/></g><g><path d="m12.586 44.586 2.05-2.05c.282-.282.604-.52.957-.707l4.043-2.14c.435-.23.906.241.676.676l-2.14 4.043c-.187.352-.425.675-.707.957l-2.05 2.05z" fill="#5c76b2"/></g><g><path d="m20.222 39.778c-.143-.143-.37-.203-.587-.088l-4.043 2.14c-.352.187-.675.425-.957.707l-2.05 2.05 1.415 1.413z" fill="#6fa4d8"/></g><g><path d="m15.414 47.414-2.05 2.05c-.282.282-.604.52-.957.707l-4.043 2.14c-.435.23-.906-.241-.676-.676l2.14-4.043c.187-.352.425-.675.707-.957l2.05-2.05z" fill="#dbdee3"/></g><g><path d="m7.778 52.222c.143.143.37.203.587.088l4.043-2.14c.352-.187.675-.425.957-.707l2.05-2.05-1.415-1.413z" fill="#b3b4b6"/></g><g><circle cx="14" cy="46" fill="#f68820" r="2"/></g><g><circle cx="14" cy="46" fill="#dbdee3" r="1"/></g><g><path d="m7 46.5h-1c-.276 0-.5-.224-.5-.5s.224-.5.5-.5h1c.276 0 .5.224.5.5s-.224.5-.5.5z" fill="#f68820"/></g><g><path d="m14 54.5c-.276 0-.5-.224-.5-.5v-1c0-.276.224-.5.5-.5s.5.224.5.5v1c0 .276-.224.5-.5.5z" fill="#f68820"/></g><g><path d="m14 39.5c-.276 0-.5-.224-.5-.5v-1c0-.276.224-.5.5-.5s.5.224.5.5v1c0 .276-.224.5-.5.5z" fill="#f68820"/></g><g><path d="m22 46.5h-1c-.276 0-.5-.224-.5-.5s.224-.5.5-.5h1c.276 0 .5.224.5.5s-.224.5-.5.5z" fill="#f68820"/></g><path d="m56.414 20 3.293-3.293c.391-.391.391-1.023 0-1.414s-1.023-.391-1.414 0l-3.293 3.293-3.293-3.293c-.391-.391-1.023-.391-1.414 0s-.391 1.023 0 1.414l3.293 3.293-3.293 3.293c-.391.391-.391 1.023 0 1.414.195.195.451.293.707.293s.512-.098.707-.293l3.293-3.293 3.293 3.293c.195.195.451.293.707.293s.512-.098.707-.293c.391-.391.391-1.023 0-1.414z" fill="#f68820"/></g></svg>